<svg xmlns="http://www.w3.org/2000/svg" width="222mm" height="175mm" viewBox="0 0 222 175">
  <style>
    text { font-family: sans-serif; }
    .hole { fill: none; stroke: black; stroke-width: 0.3; }
    .panel { fill: none; stroke: black; stroke-width: 0.5; }
    .dim { stroke: black; stroke-width: 0.15; }
    .dimtext { font-size: 3.2px; fill: black; }
    .label { font-size: 3px; fill: black; }
    .note { font-size: 3px; fill: black; }
    .bg { fill: white; }
    .punch { fill: black; }
    .ref { fill: none; stroke: black; stroke-width: 0.3; stroke-dasharray: 1.2,0.8; }
  </style>

  <rect class="panel" x="0" y="0" width="222" height="146"/>

  <circle class="hole" cx="20" cy="15" r="6"/>
  <circle class="punch" cx="20" cy="15" r="0.4"/>
  <rect class="ref" x="13.3" y="8.95" width="13.4" height="12.1"/>
  <text class="label" x="20" y="6" text-anchor="middle">RESET ⌀12</text>

  <circle class="hole" cx="202" cy="15" r="6"/>
  <circle class="punch" cx="202" cy="15" r="0.4"/>
  <rect class="ref" x="195.3" y="8.95" width="13.4" height="12.1"/>
  <text class="label" x="202" y="6" text-anchor="middle">TUNER/MUTE ⌀12</text>

  <circle class="hole" cx="55" cy="52" r="3.55"/>
  <circle class="punch" cx="55" cy="52" r="0.4"/>
  <text class="label" x="55" y="63" text-anchor="middle">ENCODER ⌀7.1</text>

  <rect class="hole" x="82" y="37" width="58" height="30"/>
  <line class="dim" x1="108" y1="52" x2="114" y2="52"/>
  <line class="dim" x1="111" y1="49" x2="111" y2="55"/>
  <text class="label" x="111" y="52" text-anchor="middle">OLED cutout ~58x30</text>
  <text class="label" x="111" y="58" text-anchor="middle">(center ref only — cut, not drilled)</text>

  <circle class="hole" cx="77" cy="32.6" r="1.5"/>
  <circle class="punch" cx="77" cy="32.6" r="0.4"/>
  <circle class="hole" cx="145" cy="32.6" r="1.5"/>
  <circle class="punch" cx="145" cy="32.6" r="0.4"/>
  <circle class="hole" cx="77" cy="71.4" r="1.5"/>
  <circle class="punch" cx="77" cy="71.4" r="0.4"/>
  <circle class="hole" cx="145" cy="71.4" r="1.5"/>
  <circle class="punch" cx="145" cy="71.4" r="0.4"/>
  <text class="label" x="77" y="29.5" text-anchor="middle">⌀3</text>
  <text class="label" x="145" y="29.5" text-anchor="middle">⌀3</text>

  <circle class="hole" cx="28.5" cy="88" r="6"/>
  <circle class="punch" cx="28.5" cy="88" r="0.4"/>
  <rect class="ref" x="21.8" y="81.95" width="13.4" height="12.1"/>
  <text class="label" x="28.5" y="80" text-anchor="middle">SW1 ⌀12</text>
  <circle class="hole" cx="83.5" cy="88" r="6"/>
  <circle class="punch" cx="83.5" cy="88" r="0.4"/>
  <rect class="ref" x="76.8" y="81.95" width="13.4" height="12.1"/>
  <text class="label" x="83.5" y="80" text-anchor="middle">SW2 ⌀12</text>
  <circle class="hole" cx="138.5" cy="88" r="6"/>
  <circle class="punch" cx="138.5" cy="88" r="0.4"/>
  <rect class="ref" x="131.8" y="81.95" width="13.4" height="12.1"/>
  <text class="label" x="138.5" y="80" text-anchor="middle">SW3 ⌀12</text>
  <circle class="hole" cx="193.5" cy="88" r="6"/>
  <circle class="punch" cx="193.5" cy="88" r="0.4"/>
  <rect class="ref" x="186.8" y="81.95" width="13.4" height="12.1"/>
  <text class="label" x="193.5" y="80" text-anchor="middle">PRESET ⌀12</text>
  <circle class="hole" cx="210" cy="88" r="2.5"/>
  <circle class="punch" cx="210" cy="88" r="0.4"/>
  <text class="label" x="210" y="94" text-anchor="middle">⌀5</text>

  <circle class="hole" cx="28.5" cy="128" r="6"/>
  <circle class="punch" cx="28.5" cy="128" r="0.4"/>
  <rect class="ref" x="21.8" y="121.95" width="13.4" height="12.1"/>
  <text class="label" x="28.5" y="138" text-anchor="middle">SW4 ⌀12</text>
  <circle class="hole" cx="83.5" cy="128" r="6"/>
  <circle class="punch" cx="83.5" cy="128" r="0.4"/>
  <rect class="ref" x="76.8" y="121.95" width="13.4" height="12.1"/>
  <text class="label" x="83.5" y="138" text-anchor="middle">SW5 ⌀12</text>
  <circle class="hole" cx="138.5" cy="128" r="6"/>
  <circle class="punch" cx="138.5" cy="128" r="0.4"/>
  <rect class="ref" x="131.8" y="121.95" width="13.4" height="12.1"/>
  <text class="label" x="138.5" y="138" text-anchor="middle">SW6 ⌀12</text>
  <circle class="hole" cx="193.5" cy="128" r="6"/>
  <circle class="punch" cx="193.5" cy="128" r="0.4"/>
  <rect class="ref" x="186.8" y="121.95" width="13.4" height="12.1"/>
  <text class="label" x="193.5" y="138" text-anchor="middle">SNAPSHOT ⌀12</text>
  <circle class="hole" cx="210" cy="128" r="2.5"/>
  <circle class="punch" cx="210" cy="128" r="0.4"/>
  <text class="label" x="210" y="134" text-anchor="middle">⌀5</text>

  <g class="dim">
    <line x1="0" y1="93" x2="0" y2="101"/>
    <line x1="0" y1="97" x2="28.5" y2="97"/>
    <line x1="28.5" y1="95" x2="28.5" y2="99"/>
    <line x1="83.5" y1="95" x2="83.5" y2="99"/>
    <line x1="28.5" y1="97" x2="83.5" y2="97"/>
    <line x1="138.5" y1="95" x2="138.5" y2="99"/>
    <line x1="83.5" y1="97" x2="138.5" y2="97"/>
    <line x1="193.5" y1="95" x2="193.5" y2="99"/>
    <line x1="138.5" y1="97" x2="193.5" y2="97"/>
    <line x1="210" y1="95" x2="210" y2="99"/>
    <line x1="193.5" y1="97" x2="210" y2="97"/>
  </g>
  <rect class="bg" x="11" y="95.3" width="16" height="3.4"/>
  <text class="dimtext" x="19" y="98" text-anchor="middle">28.5</text>
  <rect class="bg" x="47" y="95.3" width="18" height="3.4"/>
  <text class="dimtext" x="56" y="98" text-anchor="middle">55.0</text>
  <rect class="bg" x="102" y="95.3" width="18" height="3.4"/>
  <text class="dimtext" x="111" y="98" text-anchor="middle">55.0</text>
  <rect class="bg" x="157" y="95.3" width="18" height="3.4"/>
  <text class="dimtext" x="166" y="98" text-anchor="middle">55.0</text>
  <rect class="bg" x="192" y="95.3" width="17" height="3.4"/>
  <text class="dimtext" x="201.75" y="98" text-anchor="middle">16.5</text>

  <g class="dim">
    <line x1="0" y1="115" x2="0" y2="123"/>
    <line x1="28.5" y1="115" x2="28.5" y2="123"/>
    <line x1="0" y1="119" x2="28.5" y2="119"/>
  </g>
  <rect class="bg" x="11" y="117.3" width="16" height="3.4"/>
  <text class="dimtext" x="19" y="120" text-anchor="middle">28.5</text>

  <g class="dim">
    <line x1="8" y1="0" x2="12" y2="0"/>
    <line x1="8" y1="15" x2="12" y2="15"/>
    <line x1="10" y1="0" x2="10" y2="15"/>
    <line x1="8" y1="52" x2="12" y2="52"/>
    <line x1="10" y1="15" x2="10" y2="52"/>
    <line x1="8" y1="88" x2="12" y2="88"/>
    <line x1="10" y1="52" x2="10" y2="88"/>
    <line x1="8" y1="128" x2="12" y2="128"/>
    <line x1="10" y1="88" x2="10" y2="128"/>
    <line x1="8" y1="146" x2="12" y2="146"/>
    <line x1="10" y1="128" x2="10" y2="146"/>
  </g>
  <rect class="bg" x="1" y="5.8" width="9" height="3.4"/>
  <text class="dimtext" x="5.5" y="8.5" text-anchor="middle">15.0</text>
  <rect class="bg" x="1" y="31.5" width="9" height="3.4"/>
  <text class="dimtext" x="5.5" y="34.2" text-anchor="middle">37.0</text>
  <rect class="bg" x="1" y="68" width="9" height="3.4"/>
  <text class="dimtext" x="5.5" y="70.7" text-anchor="middle">36.0</text>
  <rect class="bg" x="1" y="106" width="9" height="3.4"/>
  <text class="dimtext" x="5.5" y="108.7" text-anchor="middle">40.0</text>
  <rect class="bg" x="1" y="135.3" width="9" height="3.4"/>
  <text class="dimtext" x="5.5" y="138" text-anchor="middle">18.0</text>

  <g class="dim">
    <line x1="77" y1="24" x2="77" y2="30.6"/>
    <line x1="145" y1="24" x2="145" y2="30.6"/>
    <line x1="77" y1="26" x2="145" y2="26"/>
  </g>
  <rect class="bg" x="101" y="24.3" width="20" height="3.4"/>
  <text class="dimtext" x="111" y="27" text-anchor="middle">68.0</text>
  <g class="dim">
    <line x1="150" y1="32.6" x2="156" y2="32.6"/>
    <line x1="150" y1="71.4" x2="156" y2="71.4"/>
    <line x1="153" y1="32.6" x2="153" y2="71.4"/>
  </g>
  <text class="dimtext" x="156.5" y="53.3">38.8</text>

  <g class="dim">
    <line x1="0" y1="45" x2="55" y2="45"/>
    <line x1="0" y1="43" x2="0" y2="47"/>
    <line x1="55" y1="43" x2="55" y2="47"/>
  </g>
  <rect class="bg" x="20" y="43.3" width="14" height="3.4"/>
  <text class="dimtext" x="27" y="46" text-anchor="middle">55.0</text>
  <text class="label" x="55" y="41" text-anchor="middle">(Y=52, same as OLED center)</text>

  <g class="dim">
    <line x1="0" y1="4" x2="20" y2="4"/>
    <line x1="0" y1="2" x2="0" y2="6"/>
    <line x1="20" y1="2" x2="20" y2="6"/>
  </g>
  <text class="dimtext" x="10" y="3" text-anchor="middle">20.0</text>
  <g class="dim">
    <line x1="202" y1="4" x2="222" y2="4"/>
    <line x1="202" y1="2" x2="202" y2="6"/>
    <line x1="222" y1="2" x2="222" y2="6"/>
  </g>
  <text class="dimtext" x="212" y="3" text-anchor="middle">20.0</text>

  <!-- ============ Calibration bar ============ -->
  <line x1="20" y1="160" x2="70" y2="160" stroke="black" stroke-width="0.5"/>
  <line x1="20" y1="157" x2="20" y2="163" stroke="black" stroke-width="0.5"/>
  <line x1="70" y1="157" x2="70" y2="163" stroke="black" stroke-width="0.5"/>
  <text class="note" x="45" y="168" text-anchor="middle">50mm</text>
</svg>
