<svg xmlns="http://www.w3.org/2000/svg" width="222mm" height="225mm" viewBox="0 0 222 225">
  <style>
    text { font-family: sans-serif; }
    .hole { fill: none; stroke: black; stroke-width: 0.3; }
    .panel { fill: none; stroke: black; stroke-width: 0.5; }
    .dim { stroke: black; stroke-width: 0.15; }
    .dimtext { font-size: 3.2px; fill: black; }
    .label { font-size: 3px; fill: black; }
    .note { font-size: 3px; fill: black; }
    .bg { fill: white; }
    .punch { fill: black; }
    .ref { fill: none; stroke: black; stroke-width: 0.3; stroke-dasharray: 1.2,0.8; }
    .bannerhdr { font-size: 3.4px; font-weight: bold; fill: black; }
    .fold { stroke: black; stroke-width: 0.8; stroke-dasharray: 4,2; }
  </style>

  <!-- ============ BACK WALL PANEL — y 0 to 55 ============ -->
  <rect class="panel" x="0" y="0" width="222" height="55"/>

  <line class="dim" x1="170" y1="0" x2="170" y2="55" stroke-dasharray="1,1"/>
  <line class="dim" x1="0" y1="27.5" x2="222" y2="27.5" stroke-dasharray="1,1"/>

  <circle class="hole" cx="170" cy="27.5" r="11.85"/>
  <circle class="punch" cx="170" cy="27.5" r="0.4"/>
  <text class="label" x="170" y="10" text-anchor="middle">USB coupler bore ⌀23.7</text>

  <rect class="hole" x="157" y="12" width="26" height="31" stroke-dasharray="0.6,0.6"/>
  <text class="label" x="139" y="27.5" text-anchor="end">flange 26x31 (ref only,</text>
  <text class="label" x="139" y="31" text-anchor="end">not a cut line)</text>

  <circle class="hole" cx="179.5" cy="15.5" r="1.7"/>
  <circle class="punch" cx="179.5" cy="15.5" r="0.4"/>
  <circle class="hole" cx="160.5" cy="39.5" r="1.7"/>
  <circle class="punch" cx="160.5" cy="39.5" r="0.4"/>
  <text class="label" x="179.5" y="12.5" text-anchor="middle">⌀3.4</text>
  <text class="label" x="160.5" y="44" text-anchor="middle">⌀3.4</text>

  <g class="dim">
    <line x1="160.5" y1="44" x2="160.5" y2="47"/>
    <line x1="179.5" y1="44" x2="179.5" y2="47"/>
    <line x1="160.5" y1="45.5" x2="179.5" y2="45.5"/>
  </g>
  <rect class="bg" x="161" y="44" width="18" height="3.4"/>
  <text class="dimtext" x="170" y="46.7" text-anchor="middle">19.0</text>

  <g class="dim">
    <line x1="187" y1="15.5" x2="190" y2="15.5"/>
    <line x1="187" y1="39.5" x2="190" y2="39.5"/>
    <line x1="188.5" y1="15.5" x2="188.5" y2="39.5"/>
  </g>
  <text class="dimtext" x="191" y="28.5">24.0</text>

  <g class="dim">
    <line x1="0" y1="5" x2="170" y2="5"/>
    <line x1="0" y1="3" x2="0" y2="7"/>
    <line x1="170" y1="3" x2="170" y2="7"/>
  </g>
  <rect class="bg" x="77" y="3.3" width="16" height="3.4"/>
  <text class="dimtext" x="85" y="6" text-anchor="middle">170.0</text>

  <g class="dim">
    <line x1="212" y1="0" x2="212" y2="27.5"/>
    <line x1="210" y1="0" x2="214" y2="0"/>
    <line x1="210" y1="27.5" x2="214" y2="27.5"/>
  </g>
  <rect class="bg" x="205.5" y="12" width="11" height="3.4"/>
  <text class="dimtext" x="211" y="14.7" text-anchor="middle">27.5</text>

  <!-- ============ FOLD LINE ============ -->
  <line class="fold" x1="0" y1="55" x2="222" y2="55"/>
  <text class="bannerhdr" x="111" y="53" text-anchor="middle">— FOLD 90° HERE —</text>

  <!-- ============ LID PANEL — y 55 to 201 ============ -->
  <rect class="panel" x="0" y="55" width="222" height="146"/>

  <circle class="hole" cx="22" cy="70" r="6"/>
  <circle class="punch" cx="22" cy="70" r="0.4"/>
  <rect class="ref" x="15.3" y="63.95" width="13.4" height="12.1"/>
  <text class="label" x="22" y="61" text-anchor="middle">RESET ⌀12</text>

  <circle class="hole" cx="198" cy="70" r="6"/>
  <circle class="punch" cx="198" cy="70" r="0.4"/>
  <rect class="ref" x="191.3" y="63.95" width="13.4" height="12.1"/>
  <text class="label" x="198" y="61" text-anchor="middle">TUNER/MUTE ⌀12</text>

  <circle class="hole" cx="55" cy="107" r="3.55"/>
  <circle class="punch" cx="55" cy="107" r="0.4"/>
  <text class="label" x="55" y="118" text-anchor="middle">ENCODER ⌀7.1</text>

  <rect class="hole" x="82" y="92" width="58" height="30"/>
  <line class="dim" x1="108" y1="107" x2="114" y2="107"/>
  <line class="dim" x1="111" y1="104" x2="111" y2="110"/>
  <text class="label" x="111" y="107" text-anchor="middle">OLED cutout ~58x30</text>
  <text class="label" x="111" y="113" text-anchor="middle">(center ref only — cut, not drilled)</text>

  <circle class="hole" cx="77" cy="87.6" r="1.5"/>
  <circle class="punch" cx="77" cy="87.6" r="0.4"/>
  <circle class="hole" cx="145" cy="87.6" r="1.5"/>
  <circle class="punch" cx="145" cy="87.6" r="0.4"/>
  <circle class="hole" cx="77" cy="126.4" r="1.5"/>
  <circle class="punch" cx="77" cy="126.4" r="0.4"/>
  <circle class="hole" cx="145" cy="126.4" r="1.5"/>
  <circle class="punch" cx="145" cy="126.4" r="0.4"/>
  <text class="label" x="77" y="84.5" text-anchor="middle">⌀3</text>
  <text class="label" x="145" y="84.5" text-anchor="middle">⌀3</text>

  <circle class="hole" cx="28.5" cy="143" r="6"/>
  <circle class="punch" cx="28.5" cy="143" r="0.4"/>
  <rect class="ref" x="21.8" y="136.95" width="13.4" height="12.1"/>
  <text class="label" x="28.5" y="135" text-anchor="middle">SW1 ⌀12</text>
  <circle class="hole" cx="83.5" cy="143" r="6"/>
  <circle class="punch" cx="83.5" cy="143" r="0.4"/>
  <rect class="ref" x="76.8" y="136.95" width="13.4" height="12.1"/>
  <text class="label" x="83.5" y="135" text-anchor="middle">SW2 ⌀12</text>
  <circle class="hole" cx="138.5" cy="143" r="6"/>
  <circle class="punch" cx="138.5" cy="143" r="0.4"/>
  <rect class="ref" x="131.8" y="136.95" width="13.4" height="12.1"/>
  <text class="label" x="138.5" y="135" text-anchor="middle">SW3 ⌀12</text>
  <circle class="hole" cx="177" cy="143" r="2.5"/>
  <circle class="punch" cx="177" cy="143" r="0.4"/>
  <text class="label" x="177" y="135" text-anchor="middle">⌀5</text>
  <circle class="hole" cx="193.5" cy="143" r="6"/>
  <circle class="punch" cx="193.5" cy="143" r="0.4"/>
  <rect class="ref" x="186.8" y="136.95" width="13.4" height="12.1"/>
  <text class="label" x="193.5" y="135" text-anchor="middle">PRESET ⌀12</text>

  <circle class="hole" cx="28.5" cy="183" r="6"/>
  <circle class="punch" cx="28.5" cy="183" r="0.4"/>
  <rect class="ref" x="21.8" y="176.95" width="13.4" height="12.1"/>
  <text class="label" x="28.5" y="193" text-anchor="middle">SW4 ⌀12</text>
  <circle class="hole" cx="83.5" cy="183" r="6"/>
  <circle class="punch" cx="83.5" cy="183" r="0.4"/>
  <rect class="ref" x="76.8" y="176.95" width="13.4" height="12.1"/>
  <text class="label" x="83.5" y="193" text-anchor="middle">SW5 ⌀12</text>
  <circle class="hole" cx="138.5" cy="183" r="6"/>
  <circle class="punch" cx="138.5" cy="183" r="0.4"/>
  <rect class="ref" x="131.8" y="176.95" width="13.4" height="12.1"/>
  <text class="label" x="138.5" y="193" text-anchor="middle">SW6 ⌀12</text>
  <circle class="hole" cx="177" cy="183" r="2.5"/>
  <circle class="punch" cx="177" cy="183" r="0.4"/>
  <text class="label" x="177" y="193" text-anchor="middle">⌀5</text>
  <circle class="hole" cx="193.5" cy="183" r="6"/>
  <circle class="punch" cx="193.5" cy="183" r="0.4"/>
  <rect class="ref" x="186.8" y="176.95" width="13.4" height="12.1"/>
  <text class="label" x="193.5" y="193" text-anchor="middle">SNAPSHOT ⌀12</text>

  <g class="dim">
    <line x1="0" y1="148" x2="0" y2="156"/>
    <line x1="0" y1="152" x2="28.5" y2="152"/>
    <line x1="28.5" y1="150" x2="28.5" y2="154"/>
    <line x1="83.5" y1="150" x2="83.5" y2="154"/>
    <line x1="28.5" y1="152" x2="83.5" y2="152"/>
    <line x1="138.5" y1="150" x2="138.5" y2="154"/>
    <line x1="83.5" y1="152" x2="138.5" y2="152"/>
    <line x1="177" y1="150" x2="177" y2="154"/>
    <line x1="138.5" y1="152" x2="177" y2="152"/>
    <line x1="193.5" y1="150" x2="193.5" y2="154"/>
    <line x1="177" y1="152" x2="193.5" y2="152"/>
  </g>
  <rect class="bg" x="11" y="150.3" width="16" height="3.4"/>
  <text class="dimtext" x="19" y="153" text-anchor="middle">28.5</text>
  <rect class="bg" x="47" y="150.3" width="18" height="3.4"/>
  <text class="dimtext" x="56" y="153" text-anchor="middle">55.0</text>
  <rect class="bg" x="102" y="150.3" width="18" height="3.4"/>
  <text class="dimtext" x="111" y="153" text-anchor="middle">55.0</text>
  <rect class="bg" x="149" y="150.3" width="16" height="3.4"/>
  <text class="dimtext" x="157.75" y="153" text-anchor="middle">38.5</text>
  <rect class="bg" x="177" y="150.3" width="16" height="3.4"/>
  <text class="dimtext" x="185.25" y="153" text-anchor="middle">16.5</text>

  <g class="dim">
    <line x1="0" y1="159" x2="0" y2="167"/>
    <line x1="0" y1="163" x2="28.5" y2="163"/>
    <line x1="28.5" y1="159" x2="28.5" y2="167"/>
    <line x1="83.5" y1="159" x2="83.5" y2="167"/>
    <line x1="28.5" y1="163" x2="83.5" y2="163"/>
    <line x1="138.5" y1="159" x2="138.5" y2="167"/>
    <line x1="83.5" y1="163" x2="138.5" y2="163"/>
    <line x1="177" y1="159" x2="177" y2="167"/>
    <line x1="138.5" y1="163" x2="177" y2="163"/>
    <line x1="193.5" y1="159" x2="193.5" y2="167"/>
    <line x1="177" y1="163" x2="193.5" y2="163"/>
  </g>
  <rect class="bg" x="11" y="161.3" width="16" height="3.4"/>
  <text class="dimtext" x="19" y="164" text-anchor="middle">28.5</text>
  <rect class="bg" x="47" y="161.3" width="18" height="3.4"/>
  <text class="dimtext" x="56" y="164" text-anchor="middle">55.0</text>
  <rect class="bg" x="102" y="161.3" width="18" height="3.4"/>
  <text class="dimtext" x="111" y="164" text-anchor="middle">55.0</text>
  <rect class="bg" x="149" y="161.3" width="16" height="3.4"/>
  <text class="dimtext" x="157.75" y="164" text-anchor="middle">38.5</text>
  <rect class="bg" x="177" y="161.3" width="16" height="3.4"/>
  <text class="dimtext" x="185.25" y="164" text-anchor="middle">16.5</text>

  <g class="dim">
    <line x1="8" y1="55" x2="12" y2="55"/>
    <line x1="8" y1="70" x2="12" y2="70"/>
    <line x1="10" y1="55" x2="10" y2="70"/>
    <line x1="8" y1="107" x2="12" y2="107"/>
    <line x1="10" y1="70" x2="10" y2="107"/>
    <line x1="8" y1="143" x2="12" y2="143"/>
    <line x1="10" y1="107" x2="10" y2="143"/>
    <line x1="8" y1="183" x2="12" y2="183"/>
    <line x1="10" y1="143" x2="10" y2="183"/>
    <line x1="8" y1="201" x2="12" y2="201"/>
    <line x1="10" y1="183" x2="10" y2="201"/>
  </g>
  <rect class="bg" x="1" y="60.8" width="9" height="3.4"/>
  <text class="dimtext" x="5.5" y="63.5" text-anchor="middle">15.0</text>
  <rect class="bg" x="1" y="86.5" width="9" height="3.4"/>
  <text class="dimtext" x="5.5" y="89.2" text-anchor="middle">37.0</text>
  <rect class="bg" x="1" y="123" width="9" height="3.4"/>
  <text class="dimtext" x="5.5" y="125.7" text-anchor="middle">36.0</text>
  <rect class="bg" x="1" y="161" width="9" height="3.4"/>
  <text class="dimtext" x="5.5" y="163.7" text-anchor="middle">40.0</text>
  <rect class="bg" x="1" y="190.3" width="9" height="3.4"/>
  <text class="dimtext" x="5.5" y="193" text-anchor="middle">18.0</text>

  <g class="dim">
    <line x1="77" y1="79" x2="77" y2="85.6"/>
    <line x1="145" y1="79" x2="145" y2="85.6"/>
    <line x1="77" y1="81" x2="145" y2="81"/>
  </g>
  <rect class="bg" x="101" y="79.3" width="20" height="3.4"/>
  <text class="dimtext" x="111" y="82" text-anchor="middle">68.0</text>
  <g class="dim">
    <line x1="150" y1="87.6" x2="156" y2="87.6"/>
    <line x1="150" y1="126.4" x2="156" y2="126.4"/>
    <line x1="153" y1="87.6" x2="153" y2="126.4"/>
  </g>
  <text class="dimtext" x="156.5" y="108.3">38.8</text>

  <g class="dim">
    <line x1="0" y1="100" x2="55" y2="100"/>
    <line x1="0" y1="98" x2="0" y2="102"/>
    <line x1="55" y1="98" x2="55" y2="102"/>
  </g>
  <rect class="bg" x="20" y="98.3" width="14" height="3.4"/>
  <text class="dimtext" x="27" y="101" text-anchor="middle">55.0</text>
  <text class="label" x="55" y="96" text-anchor="middle">(Y=52, same as OLED center)</text>

  <g class="dim">
    <line x1="0" y1="59" x2="22" y2="59"/>
    <line x1="0" y1="57" x2="0" y2="61"/>
    <line x1="22" y1="57" x2="22" y2="61"/>
  </g>
  <text class="dimtext" x="11" y="58" text-anchor="middle">22.0</text>
  <g class="dim">
    <line x1="198" y1="59" x2="222" y2="59"/>
    <line x1="198" y1="57" x2="198" y2="61"/>
    <line x1="222" y1="57" x2="222" y2="61"/>
  </g>
  <text class="dimtext" x="210" y="58" text-anchor="middle">24.0</text>

  <!-- ============ Calibration bar ============ -->
  <line x1="20" y1="210" x2="70" y2="210" stroke="black" stroke-width="0.5"/>
  <line x1="20" y1="207" x2="20" y2="213" stroke="black" stroke-width="0.5"/>
  <line x1="70" y1="207" x2="70" y2="213" stroke="black" stroke-width="0.5"/>
  <text class="note" x="45" y="217" text-anchor="middle">50mm</text>
</svg>
